<svg width="146" height="64" viewBox="0 0 146 64" fill="none" xmlns="http://www.w3.org/2000/svg">
<path d="M19.96 18.8C20.0347 19.0987 20.072 19.472 20.072 19.92C20.072 20.3493 20.0347 20.7227 19.96 21.04H16.6C16.6747 21.3387 16.712 21.712 16.712 22.16C16.712 22.5893 16.6747 22.9627 16.6 23.28C16.6747 23.5787 16.712 23.952 16.712 24.4C16.712 24.8293 16.6747 25.2027 16.6 25.52C16.6747 25.8187 16.712 26.192 16.712 26.64C16.712 27.0693 16.6747 27.4427 16.6 27.76H18.84C18.9147 28.0587 18.952 28.432 18.952 28.88C18.952 29.3093 18.9147 29.6827 18.84 30H13.24C13.1653 29.6827 13.128 29.3093 13.128 28.88C13.128 28.432 13.1653 28.0587 13.24 27.76H14.36C14.2853 27.4427 14.248 27.0693 14.248 26.64C14.248 26.192 14.2853 25.8187 14.36 25.52C14.2853 25.2027 14.248 24.8293 14.248 24.4C14.248 23.952 14.2853 23.5787 14.36 23.28C14.2853 22.9627 14.248 22.5893 14.248 22.16C14.248 21.712 14.2853 21.3387 14.36 21.04H13.24C13.1653 20.7227 13.128 20.3493 13.128 19.92C13.128 19.472 13.1653 19.0987 13.24 18.8H14.36C14.2853 18.4827 14.248 18.1093 14.248 17.68C14.248 17.232 14.2853 16.8587 14.36 16.56H15.48C15.4053 16.2427 15.368 15.8693 15.368 15.44C15.368 14.992 15.4053 14.6187 15.48 14.32H19.96C20.0347 14.6187 20.072 14.992 20.072 15.44C20.072 15.8693 20.0347 16.2427 19.96 16.56H16.6C16.6747 16.8587 16.712 17.232 16.712 17.68C16.712 18.1093 16.6747 18.4827 16.6 18.8H19.96ZM32.2909 21.04C32.3656 21.3387 32.4029 21.712 32.4029 22.16C32.4029 22.5893 32.3656 22.9627 32.2909 23.28H30.0509C29.9763 22.9627 29.9389 22.5893 29.9389 22.16C29.9389 21.712 29.9763 21.3387 30.0509 21.04H28.0909C28.1656 21.3387 28.2029 21.712 28.2029 22.16C28.2029 22.5893 28.1656 22.9627 28.0909 23.28H27.2509C27.3256 23.5787 27.3629 23.952 27.3629 24.4C27.3629 24.8293 27.3256 25.2027 27.2509 25.52C27.3256 25.8187 27.3629 26.192 27.3629 26.64C27.3629 27.0693 27.3256 27.4427 27.2509 27.76H28.9309C29.0056 28.0587 29.0429 28.432 29.0429 28.88C29.0429 29.3093 29.0056 29.6827 28.9309 30H23.3309C23.2563 29.6827 23.2189 29.3093 23.2189 28.88C23.2189 28.432 23.2563 28.0587 23.3309 27.76H25.0109C24.9363 27.4427 24.8989 27.0693 24.8989 26.64C24.8989 26.192 24.9363 25.8187 25.0109 25.52C24.9363 25.2027 24.8989 24.8293 24.8989 24.4C24.8989 23.952 24.9363 23.5787 25.0109 23.28C24.9363 22.9627 24.8989 22.5893 24.8989 22.16C24.8989 21.712 24.9363 21.3387 25.0109 21.04H23.3309C23.2563 20.7227 23.2189 20.3493 23.2189 19.92C23.2189 19.472 23.2563 19.0987 23.3309 18.8H26.1309C26.2056 19.0987 26.2429 19.472 26.2429 19.92C26.2429 20.3493 26.2056 20.7227 26.1309 21.04H27.2509C27.1763 20.7227 27.1389 20.3493 27.1389 19.92C27.1389 19.472 27.1763 19.0987 27.2509 18.8H31.4509C31.5256 19.0987 31.5629 19.472 31.5629 19.92C31.5629 20.3493 31.5256 20.7227 31.4509 21.04H32.2909ZM43.5019 27.76C43.5765 28.0587 43.6139 28.432 43.6139 28.88C43.6139 29.3093 43.5765 29.6827 43.5019 30H39.5819C39.5072 29.6827 39.4699 29.3093 39.4699 28.88C39.4699 28.432 39.5072 28.0587 39.5819 27.76H38.4619C38.3872 27.4427 38.3499 27.0693 38.3499 26.64C38.3499 26.192 38.3872 25.8187 38.4619 25.52H36.7819C36.8565 25.8187 36.8939 26.192 36.8939 26.64C36.8939 27.0693 36.8565 27.4427 36.7819 27.76C36.8565 28.0587 36.8939 28.432 36.8939 28.88C36.8939 29.3093 36.8565 29.6827 36.7819 30H34.5419C34.4672 29.6827 34.4299 29.3093 34.4299 28.88C34.4299 28.432 34.4672 28.0587 34.5419 27.76C34.4672 27.4427 34.4299 27.0693 34.4299 26.64C34.4299 26.192 34.4672 25.8187 34.5419 25.52C34.4672 25.2027 34.4299 24.8293 34.4299 24.4C34.4299 23.952 34.4672 23.5787 34.5419 23.28C34.4672 22.9627 34.4299 22.5893 34.4299 22.16C34.4299 21.712 34.4672 21.3387 34.5419 21.04C34.4672 20.7227 34.4299 20.3493 34.4299 19.92C34.4299 19.472 34.4672 19.0987 34.5419 18.8C34.4672 18.4827 34.4299 18.1093 34.4299 17.68C34.4299 17.232 34.4672 16.8587 34.5419 16.56C34.4672 16.2427 34.4299 15.8693 34.4299 15.44C34.4299 14.992 34.4672 14.6187 34.5419 14.32H36.7819C36.8565 14.6187 36.8939 14.992 36.8939 15.44C36.8939 15.8693 36.8565 16.2427 36.7819 16.56C36.8565 16.8587 36.8939 17.232 36.8939 17.68C36.8939 18.1093 36.8565 18.4827 36.7819 18.8C36.8565 19.0987 36.8939 19.472 36.8939 19.92C36.8939 20.3493 36.8565 20.7227 36.7819 21.04C36.8565 21.3387 36.8939 21.712 36.8939 22.16C36.8939 22.5893 36.8565 22.9627 36.7819 23.28H38.4619C38.3872 22.9627 38.3499 22.5893 38.3499 22.16C38.3499 21.712 38.3872 21.3387 38.4619 21.04H39.5819C39.5072 20.7227 39.4699 20.3493 39.4699 19.92C39.4699 19.472 39.5072 19.0987 39.5819 18.8H42.9419C43.0165 19.0987 43.0539 19.472 43.0539 19.92C43.0539 20.3493 43.0165 20.7227 42.9419 21.04H40.7019C40.7765 21.3387 40.8139 21.712 40.8139 22.16C40.8139 22.5893 40.7765 22.9627 40.7019 23.28H39.5819C39.6565 23.5787 39.6939 23.952 39.6939 24.4C39.6939 24.8293 39.6565 25.2027 39.5819 25.52H40.7019C40.7765 25.8187 40.8139 26.192 40.8139 26.64C40.8139 27.0693 40.7765 27.4427 40.7019 27.76H43.5019ZM54.7128 23.28C54.7875 23.5787 54.8248 23.952 54.8248 24.4C54.8248 24.8293 54.7875 25.2027 54.7128 25.52C54.7875 25.8187 54.8248 26.192 54.8248 26.64C54.8248 27.0693 54.7875 27.4427 54.7128 27.76H53.5928C53.6675 28.0587 53.7048 28.432 53.7048 28.88C53.7048 29.3093 53.6675 29.6827 53.5928 30H46.8728C46.7981 29.6827 46.7608 29.3093 46.7608 28.88C46.7608 28.432 46.7981 28.0587 46.8728 27.76H45.7528C45.6781 27.4427 45.6408 27.0693 45.6408 26.64C45.6408 26.192 45.6781 25.8187 45.7528 25.52H47.9928C48.0675 25.8187 48.1048 26.192 48.1048 26.64C48.1048 27.0693 48.0675 27.4427 47.9928 27.76H52.4728C52.3981 27.4427 52.3608 27.0693 52.3608 26.64C52.3608 26.192 52.3981 25.8187 52.4728 25.52C52.3981 25.2027 52.3608 24.8293 52.3608 24.4C52.3608 23.952 52.3981 23.5787 52.4728 23.28H46.8728C46.7981 22.9627 46.7608 22.5893 46.7608 22.16C46.7608 21.712 46.7981 21.3387 46.8728 21.04H45.7528C45.6781 20.7227 45.6408 20.3493 45.6408 19.92C45.6408 19.472 45.6781 19.0987 45.7528 18.8C45.6781 18.4827 45.6408 18.1093 45.6408 17.68C45.6408 17.232 45.6781 16.8587 45.7528 16.56H46.8728C46.7981 16.2427 46.7608 15.8693 46.7608 15.44C46.7608 14.992 46.7981 14.6187 46.8728 14.32H53.5928C53.6675 14.6187 53.7048 14.992 53.7048 15.44C53.7048 15.8693 53.6675 16.2427 53.5928 16.56H54.7128C54.7875 16.8587 54.8248 17.232 54.8248 17.68C54.8248 18.1093 54.7875 18.4827 54.7128 18.8H52.4728C52.3981 18.4827 52.3608 18.1093 52.3608 17.68C52.3608 17.232 52.3981 16.8587 52.4728 16.56H47.9928C48.0675 16.8587 48.1048 17.232 48.1048 17.68C48.1048 18.1093 48.0675 18.4827 47.9928 18.8C48.0675 19.0987 48.1048 19.472 48.1048 19.92C48.1048 20.3493 48.0675 20.7227 47.9928 21.04H53.5928C53.6675 21.3387 53.7048 21.712 53.7048 22.16C53.7048 22.5893 53.6675 22.9627 53.5928 23.28H54.7128ZM65.9238 27.76C65.9984 28.0587 66.0358 28.432 66.0358 28.88C66.0358 29.3093 65.9984 29.6827 65.9238 30H63.6838C63.6091 29.6827 63.5718 29.3093 63.5718 28.88C63.5718 28.432 63.6091 28.0587 63.6838 27.76H62.5638C62.4891 27.4427 62.4518 27.0693 62.4518 26.64C62.4518 26.192 62.4891 25.8187 62.5638 25.52H59.2038C59.2784 25.8187 59.3158 26.192 59.3158 26.64C59.3158 27.0693 59.2784 27.4427 59.2038 27.76H62.5638C62.6384 28.0587 62.6758 28.432 62.6758 28.88C62.6758 29.3093 62.6384 29.6827 62.5638 30H58.0838C58.0091 29.6827 57.9718 29.3093 57.9718 28.88C57.9718 28.432 58.0091 28.0587 58.0838 27.76H56.9638C56.8891 27.4427 56.8518 27.0693 56.8518 26.64C56.8518 26.192 56.8891 25.8187 56.9638 25.52H58.0838C58.0091 25.2027 57.9718 24.8293 57.9718 24.4C57.9718 23.952 58.0091 23.5787 58.0838 23.28H62.5638C62.4891 22.9627 62.4518 22.5893 62.4518 22.16C62.4518 21.712 62.4891 21.3387 62.5638 21.04H58.6438C58.5691 20.7227 58.5318 20.3493 58.5318 19.92C58.5318 19.472 58.5691 19.0987 58.6438 18.8H63.6838C63.7584 19.0987 63.7958 19.472 63.7958 19.92C63.7958 20.3493 63.7584 20.7227 63.6838 21.04H64.8038C64.8784 21.3387 64.9158 21.712 64.9158 22.16C64.9158 22.5893 64.8784 22.9627 64.8038 23.28C64.8784 23.5787 64.9158 23.952 64.9158 24.4C64.9158 24.8293 64.8784 25.2027 64.8038 25.52C64.8784 25.8187 64.9158 26.192 64.9158 26.64C64.9158 27.0693 64.8784 27.4427 64.8038 27.76H65.9238ZM70.2467 19.92C70.2467 20.3493 70.2094 20.7227 70.1347 21.04H71.2547C71.3294 21.3387 71.3667 21.712 71.3667 22.16C71.3667 22.5893 71.3294 22.9627 71.2547 23.28H70.4147C70.4894 23.5787 70.5267 23.952 70.5267 24.4C70.5267 24.8293 70.4894 25.2027 70.4147 25.52C70.4894 25.8187 70.5267 26.192 70.5267 26.64C70.5267 27.0693 70.4894 27.4427 70.4147 27.76C70.4894 28.0587 70.5267 28.432 70.5267 28.88C70.5267 29.3093 70.4894 29.6827 70.4147 30H68.1747C68.1 29.6827 68.0627 29.3093 68.0627 28.88C68.0627 28.432 68.1 28.0587 68.1747 27.76C68.1 27.4427 68.0627 27.0693 68.0627 26.64C68.0627 26.192 68.1 25.8187 68.1747 25.52C68.1 25.2027 68.0627 24.8293 68.0627 24.4C68.0627 23.952 68.1 23.5787 68.1747 23.28C68.1 22.9627 68.0627 22.5893 68.0627 22.16C68.0627 21.712 68.1 21.3387 68.1747 21.04C68.1 20.7227 68.0627 20.3493 68.0627 19.92C68.0627 19.472 68.1 19.0987 68.1747 18.8H70.1347C70.2094 19.0987 70.2467 19.472 70.2467 19.92ZM77.1347 23.28C77.2094 23.5787 77.2467 23.952 77.2467 24.4C77.2467 24.8293 77.2094 25.2027 77.1347 25.52C77.2094 25.8187 77.2467 26.192 77.2467 26.64C77.2467 27.0693 77.2094 27.4427 77.1347 27.76C77.2094 28.0587 77.2467 28.432 77.2467 28.88C77.2467 29.3093 77.2094 29.6827 77.1347 30H74.8947C74.82 29.6827 74.7827 29.3093 74.7827 28.88C74.7827 28.432 74.82 28.0587 74.8947 27.76C74.82 27.4427 74.7827 27.0693 74.7827 26.64C74.7827 26.192 74.82 25.8187 74.8947 25.52C74.82 25.2027 74.7827 24.8293 74.7827 24.4C74.7827 23.952 74.82 23.5787 74.8947 23.28C74.82 22.9627 74.7827 22.5893 74.7827 22.16C74.7827 21.712 74.82 21.3387 74.8947 21.04H71.2547C71.18 20.7227 71.1427 20.3493 71.1427 19.92C71.1427 19.472 71.18 19.0987 71.2547 18.8H75.7347C75.8094 19.0987 75.8467 19.472 75.8467 19.92C75.8467 20.3493 75.8094 20.7227 75.7347 21.04H77.1347C77.2094 21.3387 77.2467 21.712 77.2467 22.16C77.2467 22.5893 77.2094 22.9627 77.1347 23.28ZM88.3456 16.56C88.4203 16.8587 88.4576 17.232 88.4576 17.68C88.4576 18.1093 88.4203 18.4827 88.3456 18.8C88.4203 19.0987 88.4576 19.472 88.4576 19.92C88.4576 20.3493 88.4203 20.7227 88.3456 21.04C88.4203 21.3387 88.4576 21.712 88.4576 22.16C88.4576 22.5893 88.4203 22.9627 88.3456 23.28C88.4203 23.5787 88.4576 23.952 88.4576 24.4C88.4576 24.8293 88.4203 25.2027 88.3456 25.52C88.4203 25.8187 88.4576 26.192 88.4576 26.64C88.4576 27.0693 88.4203 27.4427 88.3456 27.76C88.4203 28.0587 88.4576 28.432 88.4576 28.88C88.4576 29.3093 88.4203 29.6827 88.3456 30H86.1056C86.031 29.6827 85.9936 29.3093 85.9936 28.88C85.9936 28.432 86.031 28.0587 86.1056 27.76H85.2656C85.191 27.4427 85.1536 27.0693 85.1536 26.64C85.1536 26.192 85.191 25.8187 85.2656 25.52H86.1056C86.031 25.2027 85.9936 24.8293 85.9936 24.4C85.9936 23.952 86.031 23.5787 86.1056 23.28H85.2656C85.191 22.9627 85.1536 22.5893 85.1536 22.16C85.1536 21.712 85.191 21.3387 85.2656 21.04H86.1056C86.031 20.7227 85.9936 20.3493 85.9936 19.92C85.9936 19.472 86.031 19.0987 86.1056 18.8C86.031 18.4827 85.9936 18.1093 85.9936 17.68C85.9936 17.232 86.031 16.8587 86.1056 16.56C86.031 16.2427 85.9936 15.8693 85.9936 15.44C85.9936 14.992 86.031 14.6187 86.1056 14.32H88.3456C88.4203 14.6187 88.4576 14.992 88.4576 15.44C88.4576 15.8693 88.4203 16.2427 88.3456 16.56ZM84.8176 19.92C84.8176 20.3493 84.7803 20.7227 84.7056 21.04H81.9056C81.9803 21.3387 82.0176 21.712 82.0176 22.16C82.0176 22.5893 81.9803 22.9627 81.9056 23.28H81.0656C81.1403 23.5787 81.1776 23.952 81.1776 24.4C81.1776 24.8293 81.1403 25.2027 81.0656 25.52H81.9056C81.9803 25.8187 82.0176 26.192 82.0176 26.64C82.0176 27.0693 81.9803 27.4427 81.9056 27.76H84.7056C84.7803 28.0587 84.8176 28.432 84.8176 28.88C84.8176 29.3093 84.7803 29.6827 84.7056 30H81.6256C81.551 29.6827 81.5136 29.3093 81.5136 28.88C81.5136 28.432 81.551 28.0587 81.6256 27.76H80.2256C80.151 27.4427 80.1136 27.0693 80.1136 26.64C80.1136 26.192 80.151 25.8187 80.2256 25.52H79.3856C79.311 25.2027 79.2736 24.8293 79.2736 24.4C79.2736 23.952 79.311 23.5787 79.3856 23.28H80.2256C80.151 22.9627 80.1136 22.5893 80.1136 22.16C80.1136 21.712 80.151 21.3387 80.2256 21.04H81.6256C81.551 20.7227 81.5136 20.3493 81.5136 19.92C81.5136 19.472 81.551 19.0987 81.6256 18.8H84.7056C84.7803 19.0987 84.8176 19.472 84.8176 19.92ZM99.5566 27.76C99.6312 28.0587 99.6686 28.432 99.6686 28.88C99.6686 29.3093 99.6312 29.6827 99.5566 30H97.3166C97.2419 29.6827 97.2046 29.3093 97.2046 28.88C97.2046 28.432 97.2419 28.0587 97.3166 27.76H96.4766C96.4019 27.4427 96.3646 27.0693 96.3646 26.64C96.3646 26.192 96.4019 25.8187 96.4766 25.52H94.7966C94.7219 25.2027 94.6846 24.8293 94.6846 24.4C94.6846 23.952 94.7219 23.5787 94.7966 23.28H92.8366C92.9112 23.5787 92.9486 23.952 92.9486 24.4C92.9486 24.8293 92.9112 25.2027 92.8366 25.52C92.9112 25.8187 92.9486 26.192 92.9486 26.64C92.9486 27.0693 92.9112 27.4427 92.8366 27.76C92.9112 28.0587 92.9486 28.432 92.9486 28.88C92.9486 29.3093 92.9112 29.6827 92.8366 30H90.5966C90.5219 29.6827 90.4846 29.3093 90.4846 28.88C90.4846 28.432 90.5219 28.0587 90.5966 27.76C90.5219 27.4427 90.4846 27.0693 90.4846 26.64C90.4846 26.192 90.5219 25.8187 90.5966 25.52C90.5219 25.2027 90.4846 24.8293 90.4846 24.4C90.4846 23.952 90.5219 23.5787 90.5966 23.28C90.5219 22.9627 90.4846 22.5893 90.4846 22.16C90.4846 21.712 90.5219 21.3387 90.5966 21.04C90.5219 20.7227 90.4846 20.3493 90.4846 19.92C90.4846 19.472 90.5219 19.0987 90.5966 18.8C90.5219 18.4827 90.4846 18.1093 90.4846 17.68C90.4846 17.232 90.5219 16.8587 90.5966 16.56C90.5219 16.2427 90.4846 15.8693 90.4846 15.44C90.4846 14.992 90.5219 14.6187 90.5966 14.32H92.8366C92.9112 14.6187 92.9486 14.992 92.9486 15.44C92.9486 15.8693 92.9112 16.2427 92.8366 16.56C92.9112 16.8587 92.9486 17.232 92.9486 17.68C92.9486 18.1093 92.9112 18.4827 92.8366 18.8C92.9112 19.0987 92.9486 19.472 92.9486 19.92C92.9486 20.3493 92.9112 20.7227 92.8366 21.04H94.7966C94.7219 20.7227 94.6846 20.3493 94.6846 19.92C94.6846 19.472 94.7219 19.0987 94.7966 18.8H96.4766C96.4019 18.4827 96.3646 18.1093 96.3646 17.68C96.3646 17.232 96.4019 16.8587 96.4766 16.56H97.3166C97.2419 16.2427 97.2046 15.8693 97.2046 15.44C97.2046 14.992 97.2419 14.6187 97.3166 14.32H99.5566C99.6312 14.6187 99.6686 14.992 99.6686 15.44C99.6686 15.8693 99.6312 16.2427 99.5566 16.56H98.7166C98.7912 16.8587 98.8286 17.232 98.8286 17.68C98.8286 18.1093 98.7912 18.4827 98.7166 18.8H97.0366C97.1112 19.0987 97.1486 19.472 97.1486 19.92C97.1486 20.3493 97.1112 20.7227 97.0366 21.04H95.6366C95.7112 21.3387 95.7486 21.712 95.7486 22.16C95.7486 22.5893 95.7112 22.9627 95.6366 23.28H97.0366C97.1112 23.5787 97.1486 23.952 97.1486 24.4C97.1486 24.8293 97.1112 25.2027 97.0366 25.52H98.7166C98.7912 25.8187 98.8286 26.192 98.8286 26.64C98.8286 27.0693 98.7912 27.4427 98.7166 27.76H99.5566ZM110.768 27.76C110.842 28.0587 110.88 28.432 110.88 28.88C110.88 29.3093 110.842 29.6827 110.768 30H108.528C108.453 29.6827 108.416 29.3093 108.416 28.88C108.416 28.432 108.453 28.0587 108.528 27.76H107.408C107.333 27.4427 107.296 27.0693 107.296 26.64C107.296 26.192 107.333 25.8187 107.408 25.52H104.048C104.122 25.8187 104.16 26.192 104.16 26.64C104.16 27.0693 104.122 27.4427 104.048 27.76H107.408C107.482 28.0587 107.52 28.432 107.52 28.88C107.52 29.3093 107.482 29.6827 107.408 30H102.928C102.853 29.6827 102.816 29.3093 102.816 28.88C102.816 28.432 102.853 28.0587 102.928 27.76H101.808C101.733 27.4427 101.696 27.0693 101.696 26.64C101.696 26.192 101.733 25.8187 101.808 25.52H102.928C102.853 25.2027 102.816 24.8293 102.816 24.4C102.816 23.952 102.853 23.5787 102.928 23.28H107.408C107.333 22.9627 107.296 22.5893 107.296 22.16C107.296 21.712 107.333 21.3387 107.408 21.04H103.488C103.413 20.7227 103.376 20.3493 103.376 19.92C103.376 19.472 103.413 19.0987 103.488 18.8H108.528C108.602 19.0987 108.64 19.472 108.64 19.92C108.64 20.3493 108.602 20.7227 108.528 21.04H109.648C109.722 21.3387 109.76 21.712 109.76 22.16C109.76 22.5893 109.722 22.9627 109.648 23.28C109.722 23.5787 109.76 23.952 109.76 24.4C109.76 24.8293 109.722 25.2027 109.648 25.52C109.722 25.8187 109.76 26.192 109.76 26.64C109.76 27.0693 109.722 27.4427 109.648 27.76H110.768ZM121.978 27.76C122.053 28.0587 122.09 28.432 122.09 28.88C122.09 29.3093 122.053 29.6827 121.978 30H118.058C117.984 29.6827 117.946 29.3093 117.946 28.88C117.946 28.432 117.984 28.0587 118.058 27.76H116.938C116.864 27.4427 116.826 27.0693 116.826 26.64C116.826 26.192 116.864 25.8187 116.938 25.52H115.258C115.333 25.8187 115.37 26.192 115.37 26.64C115.37 27.0693 115.333 27.4427 115.258 27.76C115.333 28.0587 115.37 28.432 115.37 28.88C115.37 29.3093 115.333 29.6827 115.258 30H113.018C112.944 29.6827 112.906 29.3093 112.906 28.88C112.906 28.432 112.944 28.0587 113.018 27.76C112.944 27.4427 112.906 27.0693 112.906 26.64C112.906 26.192 112.944 25.8187 113.018 25.52C112.944 25.2027 112.906 24.8293 112.906 24.4C112.906 23.952 112.944 23.5787 113.018 23.28C112.944 22.9627 112.906 22.5893 112.906 22.16C112.906 21.712 112.944 21.3387 113.018 21.04C112.944 20.7227 112.906 20.3493 112.906 19.92C112.906 19.472 112.944 19.0987 113.018 18.8C112.944 18.4827 112.906 18.1093 112.906 17.68C112.906 17.232 112.944 16.8587 113.018 16.56C112.944 16.2427 112.906 15.8693 112.906 15.44C112.906 14.992 112.944 14.6187 113.018 14.32H115.258C115.333 14.6187 115.37 14.992 115.37 15.44C115.37 15.8693 115.333 16.2427 115.258 16.56C115.333 16.8587 115.37 17.232 115.37 17.68C115.37 18.1093 115.333 18.4827 115.258 18.8C115.333 19.0987 115.37 19.472 115.37 19.92C115.37 20.3493 115.333 20.7227 115.258 21.04C115.333 21.3387 115.37 21.712 115.37 22.16C115.37 22.5893 115.333 22.9627 115.258 23.28H116.938C116.864 22.9627 116.826 22.5893 116.826 22.16C116.826 21.712 116.864 21.3387 116.938 21.04H118.058C117.984 20.7227 117.946 20.3493 117.946 19.92C117.946 19.472 117.984 19.0987 118.058 18.8H121.418C121.493 19.0987 121.53 19.472 121.53 19.92C121.53 20.3493 121.493 20.7227 121.418 21.04H119.178C119.253 21.3387 119.29 21.712 119.29 22.16C119.29 22.5893 119.253 22.9627 119.178 23.28H118.058C118.133 23.5787 118.17 23.952 118.17 24.4C118.17 24.8293 118.133 25.2027 118.058 25.52H119.178C119.253 25.8187 119.29 26.192 119.29 26.64C119.29 27.0693 119.253 27.4427 119.178 27.76H121.978ZM133.301 22.16C133.301 22.5893 133.264 22.9627 133.189 23.28C133.264 23.5787 133.301 23.952 133.301 24.4C133.301 24.8293 133.264 25.2027 133.189 25.52H127.309C127.384 25.8187 127.421 26.192 127.421 26.64C127.421 27.0693 127.384 27.4427 127.309 27.76H132.069C132.144 28.0587 132.181 28.432 132.181 28.88C132.181 29.3093 132.144 29.6827 132.069 30H126.469C126.395 29.6827 126.357 29.3093 126.357 28.88C126.357 28.432 126.395 28.0587 126.469 27.76H125.069C124.995 27.4427 124.957 27.0693 124.957 26.64C124.957 26.192 124.995 25.8187 125.069 25.52H124.229C124.155 25.2027 124.117 24.8293 124.117 24.4C124.117 23.952 124.155 23.5787 124.229 23.28H125.069C124.995 22.9627 124.957 22.5893 124.957 22.16C124.957 21.712 124.995 21.3387 125.069 21.04H126.469C126.395 20.7227 126.357 20.3493 126.357 19.92C126.357 19.472 126.395 19.0987 126.469 18.8H132.069C132.144 19.0987 132.181 19.472 132.181 19.92C132.181 20.3493 132.144 20.7227 132.069 21.04H133.189C133.264 21.3387 133.301 21.712 133.301 22.16ZM130.949 23.28C130.875 22.9627 130.837 22.5893 130.837 22.16C130.837 21.712 130.875 21.3387 130.949 21.04H127.309C127.384 21.3387 127.421 21.712 127.421 22.16C127.421 22.5893 127.384 22.9627 127.309 23.28H130.949Z" fill="#E1F0EC"/>
<g clip-path="url(#clip0_60_1340)">
<path opacity="0.264" d="M22.8058 52.6598C22.8058 53.0361 27.1198 53.3412 32.4413 53.3412C37.7629 53.3412 42.0769 53.0361 42.0769 52.6598C42.0769 52.4164 40.2404 52.1915 37.2592 52.0698C34.2779 51.9481 30.6048 51.9481 27.6236 52.0698C24.6423 52.1915 22.8058 52.4164 22.8058 52.6598Z" fill="url(#paint0_linear_60_1340)"/>
<path d="M33.4037 53.4738C33.5991 53.4115 33.5999 53.3841 33.4198 52.8373C33.2399 52.2914 33.3224 51.7844 33.6557 51.3859C34.1089 50.8439 34.3273 50.3815 34.3968 49.8157C34.4566 49.3299 34.4755 49.2914 34.6733 49.2534C34.8058 49.228 34.9892 49.2784 35.4259 49.4606C36.0613 49.7256 36.2127 49.842 36.3626 50.1809C36.4413 50.3589 36.4507 50.4655 36.4061 50.6715C36.3516 50.9229 36.128 51.3278 36.0433 51.3282C36.0212 51.3284 35.8992 51.412 35.7722 51.514C35.5614 51.6833 35.5469 51.7126 35.6065 51.8507C35.7362 52.1505 36.0441 52.5139 36.1685 52.5139C36.2383 52.5139 36.5233 52.3143 36.837 52.0457C37.4533 51.518 37.4791 51.4652 37.5427 50.6003C37.6186 49.5684 37.3649 49.0867 36.2347 48.1179L35.5259 47.5103L35.4806 47.1416C35.4339 46.7616 35.4997 45.8568 35.6104 45.3573C35.6757 45.0623 35.8913 44.7812 36.096 44.7245C36.319 44.6626 36.4497 44.7903 36.6194 45.2355C36.8025 45.716 36.9774 45.8836 37.2957 45.8836C37.494 45.8836 37.6791 45.7567 37.8069 45.5332C37.8985 45.373 37.9516 44.4108 37.8969 43.9042C37.8705 43.6606 37.869 43.4139 37.8935 43.356C37.9333 43.2619 38.2765 43.0583 39.0853 42.6486C39.2324 42.5741 39.4038 42.4738 39.4663 42.4258C39.5288 42.3776 39.6909 42.2892 39.8265 42.2293C40.1338 42.0936 40.935 41.625 40.8601 41.625C40.7181 41.625 40.1167 41.8101 39.7966 41.9523C39.6011 42.0391 39.4141 42.1102 39.3809 42.1102C39.3477 42.1102 38.9708 42.2315 38.5436 42.3797C38.1163 42.5279 37.7257 42.6492 37.6757 42.6492C37.5568 42.6492 37.5382 42.5464 37.5762 42.1008C37.5936 41.8984 37.5928 41.7328 37.5747 41.7328C37.5564 41.7328 37.4776 41.7719 37.3996 41.8196C37.1613 41.9656 36.6487 42.0549 36.0462 42.0556C35.4701 42.0563 34.7181 42.1705 34.4307 42.3011C34.0183 42.4885 33.5401 43.0737 32.9334 44.1332C32.5117 44.8698 32.0585 45.1817 31.409 45.1824C31.1465 45.1827 30.4459 45.0745 29.4973 44.887C28.7152 44.7325 27.6825 44.6978 27.2817 44.8125C26.7929 44.9525 26.1463 45.3267 25.6118 45.779C25.1115 46.2025 25.0344 46.2965 24.7271 46.8583C24.3603 47.5288 23.9555 48.4818 23.5955 49.5222C23.5442 49.6704 23.4359 49.9198 23.3548 50.0763C23.1384 50.494 23.1491 50.5194 23.5424 50.5194C23.9693 50.5194 24.1695 50.4521 24.4494 50.2145C24.7178 49.9865 24.7879 49.8471 25.208 48.7057C25.4232 48.1211 25.6326 47.7703 25.7666 47.7703C25.8583 47.7703 26.0439 48.3968 26.0439 48.7063C26.0439 48.9261 25.9062 49.2232 25.5499 49.7712C24.9714 50.6613 24.667 51.9199 24.7888 52.9183L24.8414 53.3495L25.2271 53.3655C25.8342 53.3908 25.8281 53.3992 25.8281 52.5311C25.8281 51.6069 25.8911 51.4067 26.2989 51.034C26.4684 50.8791 26.8484 50.4393 27.1436 50.0564C27.4387 49.6737 27.7214 49.3604 27.7717 49.3604C27.8873 49.3604 27.9449 49.6753 27.9511 50.3401C27.955 50.778 27.9724 50.8521 28.1015 50.9869C28.4517 51.3527 28.6976 52.0188 28.8491 53.0124C28.8826 53.2323 28.9114 53.2734 29.0539 53.3055C29.2636 53.3525 29.8444 53.3602 29.8945 53.3166C29.9377 53.2789 29.862 52.6817 29.6905 51.7054C29.6253 51.3348 29.5542 50.8375 29.5325 50.6003C29.4937 50.1781 29.5803 49.387 29.6827 49.2269C29.7253 49.1604 29.9423 49.1459 30.957 49.1422C31.6295 49.1398 32.3672 49.1177 32.5961 49.0931L33.0123 49.0484V49.233C33.0123 49.4309 32.9616 49.6053 32.6226 50.5733C32.5032 50.9143 32.3301 51.4341 32.2381 51.7284L32.0706 52.2635L32.2119 52.6987C32.2896 52.938 32.4049 53.2248 32.4682 53.336C32.5797 53.5321 32.5928 53.538 32.9056 53.5339C33.083 53.5316 33.3072 53.5045 33.4037 53.4738V53.4738Z" fill="url(#paint1_linear_60_1340)"/>
</g>
<g clip-path="url(#clip1_60_1340)">
<path opacity="0.264" d="M43.0878 52.6598C43.0878 53.0361 47.4018 53.3412 52.7233 53.3412C58.0449 53.3412 62.3589 53.0361 62.3589 52.6598C62.3589 52.4164 60.5223 52.1915 57.5411 52.0698C54.5599 51.9481 50.8868 51.9481 47.9056 52.0698C44.9243 52.1915 43.0878 52.4164 43.0878 52.6598Z" fill="url(#paint2_linear_60_1340)"/>
<path d="M53.6857 53.4738C53.8811 53.4115 53.8818 53.3841 53.7018 52.8373C53.5219 52.2914 53.6044 51.7844 53.9377 51.3858C54.3909 50.8439 54.6093 50.3815 54.6788 49.8157C54.7385 49.3299 54.7575 49.2914 54.9552 49.2534C55.0878 49.228 55.2711 49.2784 55.7079 49.4606C56.3433 49.7256 56.4946 49.842 56.6446 50.1809C56.7233 50.3589 56.7327 50.4655 56.6881 50.6715C56.6335 50.9229 56.41 51.3278 56.3253 51.3282C56.3032 51.3284 56.1812 51.412 56.0541 51.514C55.8434 51.6833 55.8288 51.7126 55.8885 51.8507C56.0182 52.1505 56.3261 52.5139 56.4505 52.5139C56.5203 52.5139 56.8053 52.3143 57.1189 52.0457C57.7353 51.518 57.7611 51.4652 57.8247 50.6002C57.9006 49.5684 57.6469 49.0867 56.5167 48.1179L55.8078 47.5103L55.7625 47.1416C55.7159 46.7616 55.7817 45.8568 55.8924 45.3573C55.9577 45.0623 56.1733 44.7812 56.378 44.7245C56.601 44.6626 56.7317 44.7903 56.9014 45.2355C57.0845 45.716 57.2593 45.8836 57.5777 45.8836C57.776 45.8836 57.9611 45.7567 58.0889 45.5332C58.1804 45.373 58.2336 44.4108 58.1789 43.9042C58.1525 43.6606 58.151 43.4139 58.1755 43.356C58.2153 43.2619 58.5584 43.0583 59.3673 42.6486C59.5143 42.5741 59.6857 42.4738 59.7482 42.4258C59.8107 42.3776 59.9728 42.2892 60.1085 42.2293C60.4158 42.0936 61.217 41.625 61.142 41.625C61.0001 41.625 60.3987 41.8101 60.0786 41.9523C59.8831 42.0391 59.6961 42.1102 59.6629 42.1102C59.6296 42.1102 59.2528 42.2315 58.8256 42.3797C58.3982 42.5279 58.0077 42.6492 57.9577 42.6492C57.8388 42.6492 57.8202 42.5464 57.8582 42.1008C57.8756 41.8984 57.8748 41.7328 57.8566 41.7328C57.8383 41.7328 57.7596 41.7719 57.6816 41.8196C57.4433 41.9656 56.9307 42.0549 56.3282 42.0556C55.7521 42.0563 55.0001 42.1705 54.7127 42.3011C54.3003 42.4885 53.8221 43.0737 53.2154 44.1332C52.7937 44.8698 52.3405 45.1817 51.691 45.1824C51.4284 45.1827 50.7279 45.0745 49.7793 44.887C48.9971 44.7325 47.9645 44.6978 47.5637 44.8125C47.0748 44.9525 46.4283 45.3267 45.8938 45.779C45.3935 46.2025 45.3164 46.2965 45.0091 46.8583C44.6423 47.5288 44.2375 48.4818 43.8775 49.5222C43.8262 49.6704 43.7179 49.9198 43.6368 50.0763C43.4203 50.4939 43.4311 50.5194 43.8244 50.5194C44.2513 50.5194 44.4515 50.4521 44.7314 50.2145C44.9998 49.9865 45.0699 49.8471 45.49 48.7057C45.7052 48.1211 45.9146 47.7703 46.0485 47.7703C46.1402 47.7703 46.3259 48.3968 46.3259 48.7063C46.3259 48.9261 46.1881 49.2232 45.8319 49.7712C45.2534 50.6613 44.9489 51.9199 45.0708 52.9183L45.1234 53.3495L45.5091 53.3655C46.1162 53.3908 46.1101 53.3992 46.1101 52.5311C46.1101 51.6069 46.1731 51.4067 46.5809 51.034C46.7503 50.8791 47.1304 50.4393 47.4255 50.0564C47.7207 49.6737 48.0034 49.3604 48.0537 49.3604C48.1692 49.3604 48.2269 49.6753 48.2331 50.3401C48.237 50.778 48.2544 50.8521 48.3835 50.9869C48.7337 51.3527 48.9795 52.0187 49.1311 53.0124C49.1646 53.2323 49.1934 53.2734 49.3359 53.3055C49.5456 53.3525 50.1264 53.3602 50.1765 53.3166C50.2197 53.2789 50.144 52.6817 49.9724 51.7054C49.9073 51.3348 49.8362 50.8375 49.8145 50.6002C49.7757 50.1781 49.8623 49.387 49.9647 49.2269C50.0073 49.1604 50.2243 49.1459 51.239 49.1422C51.9115 49.1398 52.6492 49.1177 52.878 49.093L53.2943 49.0484V49.233C53.2943 49.4309 53.2436 49.6053 52.9045 50.5733C52.7852 50.9143 52.6121 51.4341 52.5201 51.7284L52.3526 52.2635L52.4939 52.6987C52.5716 52.938 52.6869 53.2248 52.7502 53.336C52.8617 53.5321 52.8748 53.538 53.1876 53.5339C53.365 53.5315 53.5891 53.5045 53.6857 53.4738Z" fill="url(#paint3_linear_60_1340)"/>
</g>
<g clip-path="url(#clip2_60_1340)">
<path opacity="0.264" d="M63.37 52.6598C63.37 53.0361 67.684 53.3412 73.0056 53.3412C78.3271 53.3412 82.6411 53.0361 82.6411 52.6598C82.6411 52.4164 80.8046 52.1915 77.8234 52.0698C74.8421 51.9481 71.169 51.9481 68.1878 52.0698C65.2065 52.1915 63.37 52.4164 63.37 52.6598Z" fill="url(#paint4_linear_60_1340)"/>
<path d="M73.9679 53.4738C74.1634 53.4115 74.1641 53.3841 73.984 52.8373C73.8041 52.2914 73.8866 51.7844 74.2199 51.3858C74.6731 50.8439 74.8915 50.3815 74.961 49.8157C75.0208 49.3299 75.0397 49.2914 75.2375 49.2534C75.37 49.228 75.5534 49.2784 75.9901 49.4606C76.6255 49.7256 76.7769 49.842 76.9268 50.1809C77.0055 50.3589 77.015 50.4655 76.9703 50.6715C76.9158 50.9229 76.6922 51.3278 76.6075 51.3282C76.5854 51.3284 76.4634 51.412 76.3364 51.514C76.1256 51.6833 76.1111 51.7126 76.1707 51.8507C76.3004 52.1505 76.6083 52.5139 76.7328 52.5139C76.8025 52.5139 77.0875 52.3143 77.4012 52.0457C78.0175 51.518 78.0433 51.4652 78.1069 50.6002C78.1828 49.5684 77.9291 49.0867 76.7989 48.1179L76.0901 47.5103L76.0448 47.1416C75.9981 46.7616 76.064 45.8568 76.1746 45.3573C76.2399 45.0623 76.4555 44.7812 76.6602 44.7245C76.8832 44.6626 77.0139 44.7903 77.1836 45.2355C77.3667 45.716 77.5416 45.8836 77.8599 45.8836C78.0582 45.8836 78.2434 45.7567 78.3711 45.5332C78.4627 45.373 78.5159 44.4108 78.4611 43.9042C78.4347 43.6606 78.4332 43.4139 78.4577 43.356C78.4975 43.2619 78.8407 43.0583 79.6495 42.6486C79.7966 42.5741 79.968 42.4738 80.0305 42.4258C80.093 42.3776 80.2551 42.2892 80.3907 42.2293C80.698 42.0936 81.4992 41.625 81.4243 41.625C81.2823 41.625 80.6809 41.8101 80.3608 41.9523C80.1653 42.0391 79.9783 42.1102 79.9451 42.1102C79.9119 42.1102 79.535 42.2315 79.1078 42.3797C78.6805 42.5279 78.2899 42.6492 78.2399 42.6492C78.121 42.6492 78.1024 42.5464 78.1404 42.1008C78.1578 41.8984 78.157 41.7328 78.1389 41.7328C78.1206 41.7328 78.0418 41.7719 77.9638 41.8196C77.7255 41.9656 77.2129 42.0549 76.6104 42.0556C76.0343 42.0563 75.2823 42.1705 74.9949 42.3011C74.5826 42.4885 74.1043 43.0737 73.4976 44.1332C73.0759 44.8698 72.6227 45.1817 71.9732 45.1824C71.7107 45.1827 71.0101 45.0745 70.0615 44.887C69.2794 44.7325 68.2468 44.6978 67.8459 44.8125C67.3571 44.9525 66.7105 45.3267 66.176 45.779C65.6757 46.2025 65.5986 46.2965 65.2913 46.8583C64.9245 47.5288 64.5197 48.4818 64.1597 49.5222C64.1084 49.6704 64.0001 49.9198 63.919 50.0763C63.7026 50.494 63.7133 50.5194 64.1066 50.5194C64.5336 50.5194 64.7338 50.4521 65.0136 50.2145C65.282 49.9865 65.3521 49.8471 65.7722 48.7057C65.9874 48.1211 66.1968 47.7703 66.3308 47.7703C66.4225 47.7703 66.6082 48.3968 66.6082 48.7063C66.6082 48.9261 66.4704 49.2232 66.1141 49.7712C65.5356 50.6613 65.2312 51.9199 65.353 52.9183L65.4056 53.3495L65.7913 53.3655C66.3984 53.3908 66.3923 53.3992 66.3923 52.5311C66.3923 51.6069 66.4553 51.4067 66.8631 51.034C67.0326 50.8791 67.4126 50.4393 67.7078 50.0564C68.0029 49.6737 68.2856 49.3604 68.3359 49.3604C68.4515 49.3604 68.5091 49.6753 68.5153 50.3401C68.5192 50.778 68.5366 50.8521 68.6657 50.9869C69.0159 51.3527 69.2618 52.0187 69.4133 53.0124C69.4468 53.2323 69.4756 53.2734 69.6181 53.3055C69.8278 53.3525 70.4086 53.3602 70.4588 53.3166C70.5019 53.2789 70.4262 52.6817 70.2547 51.7054C70.1895 51.3348 70.1184 50.8375 70.0967 50.6002C70.0579 50.1781 70.1445 49.387 70.2469 49.2269C70.2896 49.1604 70.5065 49.1459 71.5212 49.1422C72.1937 49.1398 72.9314 49.1177 73.1603 49.0931L73.5765 49.0484V49.233C73.5765 49.4309 73.5258 49.6053 73.1868 50.5733C73.0674 50.9143 72.8943 51.4341 72.8023 51.7284L72.6348 52.2635L72.7761 52.6987C72.8538 52.938 72.9691 53.2248 73.0324 53.336C73.1439 53.5321 73.157 53.538 73.4698 53.5339C73.6472 53.5316 73.8714 53.5045 73.9679 53.4738V53.4738Z" fill="url(#paint5_linear_60_1340)"/>
</g>
<g clip-path="url(#clip3_60_1340)">
<path opacity="0.264" d="M83.652 52.6598C83.652 53.0361 87.966 53.3412 93.2875 53.3412C98.6091 53.3412 102.923 53.0361 102.923 52.6598C102.923 52.4164 101.087 52.1915 98.1054 52.0698C95.1241 51.9481 91.451 51.9481 88.4698 52.0698C85.4885 52.1915 83.652 52.4164 83.652 52.6598Z" fill="url(#paint6_linear_60_1340)"/>
<path d="M94.2499 53.4738C94.4453 53.4115 94.446 53.3841 94.266 52.8373C94.0861 52.2914 94.1686 51.7844 94.5019 51.3858C94.9551 50.8439 95.1735 50.3815 95.243 49.8157C95.3028 49.3299 95.3217 49.2914 95.5195 49.2534C95.652 49.228 95.8354 49.2784 96.2721 49.4606C96.9075 49.7256 97.0589 49.842 97.2088 50.1809C97.2875 50.3589 97.2969 50.4655 97.2523 50.6715C97.1977 50.9229 96.9742 51.3278 96.8895 51.3282C96.8674 51.3284 96.7454 51.412 96.6183 51.514C96.4076 51.6833 96.393 51.7126 96.4527 51.8507C96.5824 52.1505 96.8903 52.5139 97.0147 52.5139C97.0845 52.5139 97.3695 52.3143 97.6832 52.0457C98.2995 51.518 98.3253 51.4652 98.3889 50.6002C98.4648 49.5684 98.2111 49.0867 97.0809 48.1179L96.3721 47.5103L96.3268 47.1416C96.2801 46.7616 96.3459 45.8568 96.4566 45.3573C96.5219 45.0623 96.7375 44.7812 96.9422 44.7245C97.1652 44.6626 97.2959 44.7903 97.4656 45.2355C97.6487 45.716 97.8235 45.8836 98.1419 45.8836C98.3402 45.8836 98.5253 45.7567 98.6531 45.5332C98.7446 45.373 98.7978 44.4108 98.7431 43.9042C98.7167 43.6606 98.7152 43.4139 98.7397 43.356C98.7795 43.2619 99.1226 43.0583 99.9315 42.6486C100.079 42.5741 100.25 42.4738 100.312 42.4258C100.375 42.3776 100.537 42.2892 100.673 42.2293C100.98 42.0936 101.781 41.625 101.706 41.625C101.564 41.625 100.963 41.8101 100.643 41.9523C100.447 42.0391 100.26 42.1102 100.227 42.1102C100.194 42.1102 99.817 42.2315 99.3898 42.3797C98.9625 42.5279 98.5719 42.6492 98.5219 42.6492C98.403 42.6492 98.3844 42.5464 98.4224 42.1008C98.4398 41.8984 98.439 41.7328 98.4209 41.7328C98.4025 41.7328 98.3238 41.7719 98.2458 41.8196C98.0075 41.9656 97.4949 42.0549 96.8924 42.0556C96.3163 42.0563 95.5643 42.1705 95.2769 42.3011C94.8645 42.4885 94.3863 43.0737 93.7796 44.1332C93.3579 44.8698 92.9047 45.1817 92.2552 45.1824C91.9926 45.1827 91.2921 45.0745 90.3435 44.887C89.5613 44.7325 88.5287 44.6978 88.1279 44.8125C87.639 44.9525 86.9925 45.3267 86.458 45.779C85.9577 46.2025 85.8806 46.2965 85.5733 46.8583C85.2065 47.5288 84.8017 48.4818 84.4417 49.5222C84.3904 49.6704 84.2821 49.9198 84.201 50.0763C83.9846 50.494 83.9953 50.5194 84.3886 50.5194C84.8155 50.5194 85.0157 50.4521 85.2956 50.2145C85.564 49.9865 85.6341 49.8471 86.0542 48.7057C86.2694 48.1211 86.4788 47.7703 86.6128 47.7703C86.7045 47.7703 86.8901 48.3968 86.8901 48.7063C86.8901 48.9261 86.7524 49.2232 86.3961 49.7712C85.8176 50.6613 85.5131 51.9199 85.635 52.9183L85.6876 53.3495L86.0733 53.3655C86.6804 53.3908 86.6743 53.3992 86.6743 52.5311C86.6743 51.6069 86.7373 51.4067 87.1451 51.034C87.3145 50.8791 87.6946 50.4393 87.9897 50.0564C88.2849 49.6737 88.5676 49.3604 88.6179 49.3604C88.7334 49.3604 88.7911 49.6753 88.7973 50.3401C88.8012 50.778 88.8186 50.8521 88.9477 50.9869C89.2979 51.3527 89.5437 52.0187 89.6953 53.0124C89.7288 53.2323 89.7576 53.2734 89.9001 53.3055C90.1098 53.3525 90.6906 53.3602 90.7407 53.3166C90.7839 53.2789 90.7082 52.6817 90.5367 51.7054C90.4715 51.3348 90.4004 50.8375 90.3787 50.6002C90.3399 50.1781 90.4265 49.387 90.5289 49.2269C90.5715 49.1604 90.7885 49.1459 91.8032 49.1422C92.4757 49.1398 93.2134 49.1177 93.4422 49.0931L93.8585 49.0484V49.233C93.8585 49.4309 93.8078 49.6053 93.4688 50.5733C93.3494 50.9143 93.1763 51.4341 93.0843 51.7284L92.9168 52.2635L93.0581 52.6987C93.1358 52.938 93.2511 53.2248 93.3144 53.336C93.4259 53.5321 93.439 53.538 93.7518 53.5339C93.9292 53.5316 94.1533 53.5045 94.2499 53.4738V53.4738Z" fill="url(#paint7_linear_60_1340)"/>
</g>
<g clip-path="url(#clip4_60_1340)">
<path opacity="0.264" d="M103.934 52.6596C103.934 53.0359 108.248 53.3409 113.57 53.3409C118.891 53.3409 123.205 53.0359 123.205 52.6596C123.205 52.4162 121.369 52.1913 118.388 52.0696C115.406 51.9478 111.733 51.9478 108.752 52.0696C105.771 52.1913 103.934 52.4162 103.934 52.6596Z" fill="url(#paint8_linear_60_1340)"/>
<path d="M114.532 53.4738C114.728 53.4115 114.728 53.3841 114.548 52.8373C114.368 52.2914 114.451 51.7844 114.784 51.3858C115.237 50.8439 115.456 50.3815 115.525 49.8157C115.585 49.3299 115.604 49.2914 115.802 49.2534C115.934 49.228 116.118 49.2784 116.554 49.4606C117.19 49.7256 117.341 49.842 117.491 50.1809C117.57 50.3589 117.579 50.4655 117.534 50.6715C117.48 50.9229 117.256 51.3278 117.172 51.3282C117.15 51.3284 117.028 51.412 116.901 51.514C116.69 51.6833 116.675 51.7126 116.735 51.8507C116.865 52.1505 117.173 52.5139 117.297 52.5139C117.367 52.5139 117.652 52.3143 117.965 52.0457C118.582 51.518 118.608 51.4652 118.671 50.6002C118.747 49.5684 118.493 49.0867 117.363 48.1179L116.654 47.5103L116.609 47.1416C116.562 46.7616 116.628 45.8568 116.739 45.3573C116.804 45.0623 117.02 44.7812 117.224 44.7245C117.447 44.6626 117.578 44.7903 117.748 45.2355C117.931 45.716 118.106 45.8836 118.424 45.8836C118.622 45.8836 118.808 45.7567 118.935 45.5332C119.027 45.373 119.08 44.4108 119.025 43.9042C118.999 43.6606 118.997 43.4139 119.022 43.356C119.062 43.2619 119.405 43.0583 120.214 42.6486C120.361 42.5741 120.532 42.4738 120.595 42.4258C120.657 42.3776 120.819 42.2892 120.955 42.2293C121.262 42.0936 122.063 41.625 121.988 41.625C121.847 41.625 121.245 41.8101 120.925 41.9523C120.73 42.0391 120.543 42.1102 120.509 42.1102C120.476 42.1102 120.099 42.2315 119.672 42.3797C119.245 42.5279 118.854 42.6492 118.804 42.6492C118.685 42.6492 118.667 42.5464 118.705 42.1008C118.722 41.8984 118.721 41.7328 118.703 41.7328C118.685 41.7328 118.606 41.7719 118.528 41.8196C118.29 41.9656 117.777 42.0549 117.175 42.0556C116.598 42.0563 115.847 42.1705 115.559 42.3011C115.147 42.4885 114.669 43.0737 114.062 44.1332C113.64 44.8698 113.187 45.1817 112.537 45.1824C112.275 45.1827 111.574 45.0745 110.626 44.887C109.844 44.7325 108.811 44.6978 108.41 44.8125C107.921 44.9525 107.275 45.3267 106.74 45.779C106.24 46.2025 106.163 46.2965 105.855 46.8583C105.489 47.5288 105.084 48.4818 104.724 49.5222C104.673 49.6704 104.564 49.9198 104.483 50.0763C104.267 50.494 104.278 50.5194 104.671 50.5194C105.098 50.5194 105.298 50.4521 105.578 50.2145C105.846 49.9865 105.916 49.8471 106.336 48.7057C106.552 48.1211 106.761 47.7703 106.895 47.7703C106.987 47.7703 107.172 48.3968 107.172 48.7063C107.172 48.9261 107.035 49.2232 106.678 49.7712C106.1 50.6613 105.795 51.9199 105.917 52.9183L105.97 53.3495L106.356 53.3655C106.963 53.3908 106.957 53.3992 106.957 52.5311C106.957 51.6069 107.019 51.4067 107.427 51.034C107.597 50.8791 107.977 50.4393 108.272 50.0564C108.567 49.6737 108.85 49.3604 108.9 49.3604C109.016 49.3604 109.073 49.6753 109.08 50.3401C109.083 50.778 109.101 50.8521 109.23 50.9869C109.58 51.3527 109.826 52.0187 109.977 53.0124C110.011 53.2323 110.04 53.2734 110.182 53.3055C110.392 53.3525 110.973 53.3602 111.023 53.3166C111.066 53.2789 110.99 52.6817 110.819 51.7054C110.754 51.3348 110.683 50.8375 110.661 50.6002C110.622 50.1781 110.709 49.387 110.811 49.2269C110.854 49.1604 111.071 49.1459 112.085 49.1422C112.758 49.1398 113.496 49.1177 113.724 49.0931L114.141 49.0484V49.233C114.141 49.4309 114.09 49.6053 113.751 50.5733C113.632 50.9143 113.459 51.4341 113.367 51.7284L113.199 52.2635L113.34 52.6987C113.418 52.938 113.533 53.2248 113.597 53.336C113.708 53.5321 113.721 53.538 114.034 53.5339C114.211 53.5316 114.436 53.5045 114.532 53.4738V53.4738Z" fill="#FFCB9A"/>
</g>
<defs>
<linearGradient id="paint0_linear_60_1340" x1="27.871" y1="52.0345" x2="28.061" y2="53.9162" gradientUnits="userSpaceOnUse">
<stop offset="0.268676" stop-color="#959595" stop-opacity="0"/>
<stop offset="1" stop-color="#CCCCCC"/>
</linearGradient>
<linearGradient id="paint1_linear_60_1340" x1="40.4513" y1="41.625" x2="21.9325" y2="53.4097" gradientUnits="userSpaceOnUse">
<stop stop-color="#FFCB9A" stop-opacity="0.66"/>
<stop offset="0.55501" stop-color="#FFCB9A" stop-opacity="0"/>
</linearGradient>
<linearGradient id="paint2_linear_60_1340" x1="48.153" y1="52.0345" x2="48.343" y2="53.9162" gradientUnits="userSpaceOnUse">
<stop offset="0.341595" stop-color="#959595" stop-opacity="0"/>
<stop offset="1" stop-color="#CCCCCC"/>
</linearGradient>
<linearGradient id="paint3_linear_60_1340" x1="60.7333" y1="41.625" x2="42.6353" y2="53.4097" gradientUnits="userSpaceOnUse">
<stop stop-color="#FFCB9A" stop-opacity="0.94"/>
<stop offset="0.642686" stop-color="#FFCB9A" stop-opacity="0"/>
</linearGradient>
<linearGradient id="paint4_linear_60_1340" x1="68.4352" y1="52.0345" x2="68.6252" y2="53.9162" gradientUnits="userSpaceOnUse">
<stop stop-color="#959595" stop-opacity="0.14"/>
<stop offset="1" stop-color="#CCCCCC" stop-opacity="0.73"/>
</linearGradient>
<linearGradient id="paint5_linear_60_1340" x1="81.0155" y1="41.625" x2="62.9176" y2="53.4097" gradientUnits="userSpaceOnUse">
<stop offset="0.0924476" stop-color="#FFCB9A"/>
<stop offset="0.642613" stop-color="#FFCB9A" stop-opacity="0.09"/>
</linearGradient>
<linearGradient id="paint6_linear_60_1340" x1="88.7172" y1="52.0345" x2="88.9072" y2="53.9162" gradientUnits="userSpaceOnUse">
<stop stop-color="#959595" stop-opacity="0.32"/>
<stop offset="1" stop-color="#CCCCCC"/>
</linearGradient>
<linearGradient id="paint7_linear_60_1340" x1="101.297" y1="41.625" x2="83.1995" y2="53.4097" gradientUnits="userSpaceOnUse">
<stop offset="0.158223" stop-color="#FFCB9A"/>
<stop offset="0.668656" stop-color="#FFCB9A" stop-opacity="0.21"/>
</linearGradient>
<linearGradient id="paint8_linear_60_1340" x1="108.999" y1="52.0342" x2="109.189" y2="53.916" gradientUnits="userSpaceOnUse">
<stop stop-color="#959595"/>
<stop offset="1" stop-color="#CCCCCC"/>
</linearGradient>
<clipPath id="clip0_60_1340">
<rect width="19.2821" height="11.75" fill="white" transform="matrix(-1 0 0 1 42.0769 41.625)"/>
</clipPath>
<clipPath id="clip1_60_1340">
<rect width="19.2821" height="11.75" fill="white" transform="matrix(-1 0 0 1 62.3589 41.625)"/>
</clipPath>
<clipPath id="clip2_60_1340">
<rect width="19.2821" height="11.75" fill="white" transform="matrix(-1 0 0 1 82.6411 41.625)"/>
</clipPath>
<clipPath id="clip3_60_1340">
<rect width="19.2821" height="11.75" fill="white" transform="matrix(-1 0 0 1 102.923 41.625)"/>
</clipPath>
<clipPath id="clip4_60_1340">
<rect width="19.2821" height="11.75" fill="white" transform="matrix(-1 0 0 1 123.205 41.625)"/>
</clipPath>
</defs>
</svg>
